<svg width="45" height="46" viewBox="0 0 45 46" fill="none" xmlns="http://www.w3.org/2000/svg">
<g clip-path="url(#clip0_120_45)">
<path d="M20.4502 7.25003C20.3165 7.60686 20.2487 7.98498 20.25 8.36603C20.25 9.04103 20.4525 9.67328 20.835 10.2133C21.2175 10.7533 21.7575 11.183 22.4325 11.4103L24.822 12.1978C25.1595 12.3103 25.4745 12.4903 25.8795 12.8503C26.127 13.0978 26.3295 13.3903 26.5343 13.91L27.3083 16.25H24.75C24.4516 16.25 24.1655 16.3686 23.9545 16.5795C23.7435 16.7905 23.625 17.0767 23.625 17.375C23.625 17.6734 23.7435 17.9595 23.9545 18.1705C24.1655 18.3815 24.4516 18.5 24.75 18.5H29.4862C29.2941 18.959 29.2221 19.4594 29.2772 19.9539C29.3324 20.4484 29.5127 20.9207 29.8013 21.326C30.1612 21.821 30.6563 22.181 31.2638 22.406L32.9737 22.9685C33.1537 23.036 33.3337 23.1485 33.4688 23.2858C33.6262 23.4208 33.7163 23.6008 33.7838 23.7808L34.3687 25.583C34.5938 26.1455 34.9538 26.6203 35.4487 26.9825C35.9438 27.3178 36.5243 27.4955 37.1295 27.4978C37.5188 27.4978 37.8967 27.4483 38.25 27.3178V32C38.25 33.7902 37.5388 35.5071 36.273 36.773C35.0071 38.0389 33.2902 38.75 31.5 38.75H13.5C11.7098 38.75 9.9929 38.0389 8.72703 36.773C7.46116 35.5071 6.75 33.7902 6.75 32V14C6.75 12.2098 7.46116 10.4929 8.72703 9.22706C9.9929 7.96119 11.7098 7.25003 13.5 7.25003H20.4502ZM21.0465 26.1433C20.942 26.0385 20.8179 25.9554 20.6812 25.8987C20.5445 25.842 20.398 25.8128 20.25 25.8128C20.102 25.8128 19.9555 25.842 19.8188 25.8987C19.6821 25.9554 19.558 26.0385 19.4535 26.1433L16.2765 29.3203L15.3832 28.5013C15.1625 28.3002 14.8708 28.195 14.5725 28.209C14.2742 28.2229 13.9936 28.3547 13.7925 28.5755C13.5914 28.7963 13.4862 29.088 13.5002 29.3863C13.5141 29.6846 13.646 29.9652 13.8668 30.1663L15.5543 31.7053C15.7678 31.9002 16.0482 32.0055 16.3373 31.9992C16.6263 31.9929 16.9019 31.8756 17.1068 31.6715L21.0442 27.734C21.2552 27.5231 21.3736 27.237 21.3736 26.9387C21.3736 26.6403 21.2552 26.3542 21.0442 26.1433M24.75 27.5C24.4516 27.5 24.1655 27.6186 23.9545 27.8295C23.7435 28.0405 23.625 28.3267 23.625 28.625C23.625 28.9234 23.7435 29.2095 23.9545 29.4205C24.1655 29.6315 24.4516 29.75 24.75 29.75H30.375C30.6734 29.75 30.9595 29.6315 31.1705 29.4205C31.3815 29.2095 31.5 28.9234 31.5 28.625C31.5 28.3267 31.3815 28.0405 31.1705 27.8295C30.9595 27.6186 30.6734 27.5 30.375 27.5H24.75ZM37.1182 27.5H37.1408L37.1295 27.4978L37.1182 27.5ZM37.089 14C37.2297 13.9992 37.3671 14.0423 37.4821 14.1234C37.5971 14.2045 37.6838 14.3195 37.7302 14.4523L38.2927 16.1758C38.4676 16.6988 38.7617 17.1739 39.1518 17.5636C39.5419 17.9533 40.0173 18.247 40.5405 18.4213L42.2618 18.9793L42.2955 18.9883C42.3946 19.0236 42.4841 19.0813 42.5572 19.1569C42.6302 19.2325 42.6848 19.324 42.7166 19.4243C42.7484 19.5245 42.7566 19.6307 42.7405 19.7346C42.7245 19.8385 42.6846 19.9373 42.624 20.0233C42.5429 20.1379 42.4281 20.2245 42.2955 20.2708L40.5743 20.8288C40.0511 21.0031 39.5757 21.2967 39.1856 21.6865C38.7954 22.0762 38.5013 22.5513 38.3265 23.0743L37.7663 24.7978C37.7197 24.9307 37.6329 25.0458 37.5181 25.1273C37.4032 25.2088 37.2658 25.2525 37.125 25.2525C36.9842 25.2525 36.8468 25.2088 36.7319 25.1273C36.6171 25.0458 36.5303 24.9307 36.4837 24.7978L35.9212 23.0743C35.7478 22.5499 35.4546 22.0731 35.0648 21.6818C34.675 21.2904 34.1994 20.9953 33.6758 20.8198L31.9545 20.2618C31.8554 20.2265 31.7659 20.1688 31.6929 20.0932C31.6198 20.0175 31.5652 19.926 31.5334 19.8258C31.5016 19.7256 31.4934 19.6193 31.5095 19.5154C31.5255 19.4115 31.5654 19.3127 31.626 19.2268C31.7071 19.1121 31.8219 19.0256 31.9545 18.9793L33.6758 18.4213C34.1927 18.2425 34.6613 17.9469 35.0454 17.5574C35.4294 17.168 35.7183 16.6952 35.8898 16.1758L36.45 14.45C36.4967 14.318 36.5833 14.2038 36.6977 14.1231C36.8122 14.0425 36.949 13.9995 37.089 14ZM21.0465 14.891C20.942 14.7863 20.8179 14.7031 20.6812 14.6464C20.5445 14.5897 20.398 14.5605 20.25 14.5605C20.102 14.5605 19.9555 14.5897 19.8188 14.6464C19.6821 14.7031 19.558 14.7863 19.4535 14.891L16.2765 18.0725L15.3832 17.2535C15.1625 17.0524 14.8708 16.9473 14.5725 16.9612C14.2742 16.9751 13.9936 17.107 13.7925 17.3278C13.5914 17.5486 13.4862 17.8402 13.5002 18.1385C13.5141 18.4369 13.646 18.7174 13.8668 18.9185L15.5543 20.4575C15.7678 20.6525 16.0482 20.7578 16.3373 20.7515C16.6263 20.7452 16.9019 20.6278 17.1068 20.4238L21.0442 16.4863C21.149 16.3818 21.2321 16.2576 21.2889 16.121C21.3456 15.9843 21.3748 15.8378 21.3748 15.6898C21.3748 15.5418 21.3456 15.3953 21.2889 15.2586C21.2321 15.1219 21.149 14.9978 21.0442 14.8933M30.3278 0.500029C30.5249 0.498942 30.7174 0.559527 30.8784 0.673302C31.0394 0.787077 31.1607 0.948346 31.2255 1.13453L32.0085 3.54653C32.2516 4.27907 32.6627 4.9446 33.2088 5.48998C33.755 6.03535 34.4211 6.44545 35.154 6.68753L37.566 7.47278L37.6155 7.48403C37.7996 7.55093 37.9586 7.67286 38.071 7.83327C38.1834 7.99368 38.2436 8.1848 38.2436 8.38065C38.2436 8.57651 38.1834 8.76763 38.071 8.92804C37.9586 9.08845 37.7996 9.21038 37.6155 9.27728L35.2035 10.0625C34.471 10.3059 33.8053 10.7164 33.2589 11.2616C32.7126 11.8067 32.3007 12.4716 32.0557 13.2035L31.275 15.6155C31.2259 15.7541 31.1453 15.8795 31.0396 15.9817C30.9339 16.0839 30.8059 16.1603 30.6658 16.2048C30.5256 16.2492 30.377 16.2606 30.2317 16.238C30.0864 16.2154 29.9483 16.1595 29.8283 16.0745L29.7833 16.0408C29.6446 15.929 29.5395 15.781 29.4795 15.6133L28.6965 13.2058C28.4521 12.4718 28.0406 11.8046 27.4943 11.2568C26.9481 10.709 26.282 10.2955 25.5487 10.049L23.1367 9.26603C22.9527 9.19913 22.7936 9.0772 22.6813 8.91679C22.5689 8.75638 22.5086 8.56526 22.5086 8.3694C22.5086 8.17355 22.5689 7.98243 22.6813 7.82202C22.7936 7.66161 22.9527 7.53968 23.1367 7.47278L25.5487 6.68753C26.272 6.43768 26.9279 6.02426 27.4653 5.47946C28.0027 4.93466 28.4071 4.27318 28.647 3.54653L29.43 1.13453C29.4949 0.94798 29.6166 0.786452 29.778 0.672644C29.9395 0.558837 30.1302 0.498471 30.3278 0.500029Z" fill="white"/>
</g>
<defs>
<clipPath id="clip0_120_45">
<rect width="45" height="45" fill="white" transform="translate(0 0.5)"/>
</clipPath>
</defs>
</svg>
