<svg width="32" height="29" viewBox="0 0 32 29" fill="none" xmlns="http://www.w3.org/2000/svg">
<g filter="url(#filter0_d_255_70)">
<path d="M30.3547 3.088C29.8675 2.88505 29.3309 2.8317 28.8132 2.93476C28.2956 3.03781 27.8203 3.2926 27.448 3.66667L24 7.11467L17.8853 1C17.3853 0.500079 16.7071 0.219238 16 0.219238C15.2929 0.219238 14.6147 0.500079 14.1147 1L8 7.11467L4.552 3.66667C4.17906 3.29384 3.70396 3.03996 3.18675 2.93711C2.66954 2.83427 2.13345 2.88707 1.64625 3.08886C1.15906 3.29065 0.74262 3.63235 0.449596 4.07078C0.156571 4.50921 0.000112598 5.02467 0 5.552L0 19.6667C0.00211714 21.4341 0.705176 23.1286 1.95496 24.3784C3.20474 25.6282 4.89921 26.3312 6.66667 26.3333H25.3333C27.1008 26.3312 28.7953 25.6282 30.045 24.3784C31.2948 23.1286 31.9979 21.4341 32 19.6667V5.552C32.0001 5.02463 31.8439 4.50905 31.551 4.07047C31.2582 3.63189 30.8418 3.28999 30.3547 3.088Z" fill="#FFD700"/>
</g>
<defs>
<filter id="filter0_d_255_70" x="-0.8" y="0.219238" width="33.6" height="27.9141" filterUnits="userSpaceOnUse" color-interpolation-filters="sRGB">
<feFlood flood-opacity="0" result="BackgroundImageFix"/>
<feColorMatrix in="SourceAlpha" type="matrix" values="0 0 0 0 0 0 0 0 0 0 0 0 0 0 0 0 0 0 127 0" result="hardAlpha"/>
<feOffset dy="1"/>
<feGaussianBlur stdDeviation="0.4"/>
<feComposite in2="hardAlpha" operator="out"/>
<feColorMatrix type="matrix" values="0 0 0 0 0.791667 0 0 0 0 0.672061 0 0 0 0 0.0291799 0 0 0 1 0"/>
<feBlend mode="normal" in2="BackgroundImageFix" result="effect1_dropShadow_255_70"/>
<feBlend mode="normal" in="SourceGraphic" in2="effect1_dropShadow_255_70" result="shape"/>
</filter>
</defs>
</svg>
