<svg width="47" height="47" viewBox="0 0 47 47" fill="none" xmlns="http://www.w3.org/2000/svg">
<g clip-path="url(#clip0_129_13)">
<path d="M20.5625 30.8438C20.5625 30.4542 20.4078 30.0806 20.1323 29.8052C19.8569 29.5297 19.4833 29.375 19.0938 29.375C18.7042 29.375 18.3306 29.5297 18.0552 29.8052C17.7797 30.0806 17.625 30.4542 17.625 30.8438V33.7812C17.625 34.1708 17.7797 34.5444 18.0552 34.8198C18.3306 35.0953 18.7042 35.25 19.0938 35.25C19.4833 35.25 19.8569 35.0953 20.1323 34.8198C20.4078 34.5444 20.5625 34.1708 20.5625 33.7812V30.8438ZM27.9062 26.4375C28.2958 26.4375 28.6694 26.5922 28.9448 26.8677C29.2203 27.1431 29.375 27.5167 29.375 27.9062V33.7812C29.375 34.1708 29.2203 34.5444 28.9448 34.8198C28.6694 35.0953 28.2958 35.25 27.9062 35.25C27.5167 35.25 27.1431 35.0953 26.8677 34.8198C26.5922 34.5444 26.4375 34.1708 26.4375 33.7812V27.9062C26.4375 27.5167 26.5922 27.1431 26.8677 26.8677C27.1431 26.5922 27.5167 26.4375 27.9062 26.4375Z" fill="#204E51"/>
<path fill-rule="evenodd" clip-rule="evenodd" d="M23.9114 0.146906L24.6193 0.199781C25.8002 0.287906 26.7784 0.358406 27.5568 0.478844C28.3764 0.608094 29.1254 0.804906 29.8128 1.21909C30.8762 1.86534 31.7104 2.82297 32.1922 3.96566C32.5036 4.70297 32.5917 5.46966 32.6005 6.29803C32.6064 7.09409 32.5359 8.06934 32.4507 9.23553L32.4213 9.58803L42.7026 10.3371C42.8988 10.3457 43.0913 10.3935 43.2686 10.4778C43.446 10.562 43.6047 10.681 43.7353 10.8277C43.8659 10.9744 43.9658 11.1457 44.029 11.3317C44.0922 11.5176 44.1175 11.7144 44.1034 11.9102C44.0892 12.1061 44.0359 12.2972 43.9467 12.4721C43.8574 12.647 43.7339 12.8023 43.5836 12.9287C43.4333 13.055 43.2591 13.15 43.0715 13.2079C42.8838 13.2658 42.6865 13.2855 42.4911 13.2658L40.8989 13.1483L39.2657 32.7708C39.0806 35.0003 38.9337 36.7658 38.7017 38.1758C38.4667 39.624 38.1259 40.8195 37.4944 41.9064C36.4571 43.6801 34.9121 45.1023 33.0587 45.9895C31.9278 46.533 30.7029 46.7709 29.24 46.8855C27.8124 46.9971 26.0381 46.9971 23.8056 46.9971H23.1887C20.9562 46.9971 19.1937 46.9971 17.7544 46.8855C16.2974 46.768 15.0754 46.533 13.9356 45.9925C12.0823 45.1052 10.5373 43.683 9.49999 41.9093C8.86843 40.8283 8.53062 39.6269 8.29562 38.1787C8.06356 36.7658 7.91962 35.0062 7.73162 32.7737L5.88099 10.5956L4.28887 10.4781C4.09303 10.4688 3.90103 10.4204 3.72419 10.3358C3.54735 10.2511 3.38925 10.1319 3.25921 9.98516C3.12917 9.83844 3.02982 9.66716 2.96703 9.48143C2.90423 9.2957 2.87925 9.09927 2.89357 8.90374C2.90789 8.7082 2.96121 8.51751 3.05039 8.34291C3.13957 8.1683 3.2628 8.01332 3.41283 7.8871C3.56285 7.76088 3.73663 7.66597 3.92392 7.60797C4.1112 7.54998 4.3082 7.53006 4.50331 7.54941L14.7846 8.29847L14.811 7.94597C14.8962 6.77097 14.9667 5.79278 15.0901 5.00847C15.2193 4.18891 15.4191 3.44278 15.8332 2.75834C16.4795 1.70084 17.4401 0.866594 18.5886 0.384844C19.3289 0.0734685 20.0985 -0.0146565 20.9269 -0.0205315C21.7259 -0.0264065 22.7011 0.0440935 23.8937 0.129281L23.9114 0.146906ZM8.87137 10.8394L9.01531 12.5725L17.5047 22.5307L24.5547 11.985L8.89781 10.8423L8.87137 10.8394ZM27.8476 12.223C27.8068 12.3475 27.7495 12.4661 27.6772 12.5755L25.4859 15.8625L30.7146 20.0338L37.2065 12.8957L27.8652 12.2112L27.8476 12.223ZM29.5191 9.10922L29.4985 9.40297L17.7485 8.55109L17.7691 8.25734C17.8601 7.00009 17.9247 6.14528 18.0276 5.49022C18.1274 4.85278 18.2449 4.52966 18.3801 4.30934C18.7032 3.78059 19.1849 3.36347 19.7577 3.12259C19.9927 3.02272 20.3335 2.95222 20.9797 2.94634C21.6436 2.94047 22.4984 3.00509 23.7586 3.09322L24.3461 3.13728C25.6034 3.22834 26.4582 3.29297 27.1162 3.39578C27.7566 3.49272 28.0797 3.61316 28.3 3.74828C28.832 4.0692 29.2485 4.5505 29.4897 5.12303C29.5896 5.35803 29.6601 5.69584 29.6659 6.34209C29.6718 7.00597 29.6101 7.85491 29.5191 9.10922ZM36.3634 32.4917L37.6736 16.7761L31.9454 23.033C31.6942 23.309 31.3472 23.4791 30.9751 23.5085C30.603 23.538 30.2336 23.4247 29.9421 23.1916L23.8614 18.3153L18.8677 25.806C18.7425 25.9962 18.5746 26.1546 18.3774 26.2686C18.1802 26.3825 17.9591 26.4488 17.7317 26.4622C17.5044 26.4756 17.277 26.4358 17.0678 26.3458C16.8585 26.2558 16.6732 26.1183 16.5265 25.944L9.44712 17.6015L10.6867 32.4947C10.8777 34.7977 11.0157 36.4309 11.2272 37.7234C11.4329 38.9924 11.6943 39.7943 12.0703 40.4377C12.8127 41.7043 13.9178 42.7193 15.2428 43.3517C15.9155 43.6748 16.738 43.8657 18.0187 43.9685C19.3171 44.0713 20.9562 44.0713 23.2769 44.0713H23.7674C26.0792 44.0713 27.7331 44.0713 29.0256 43.9685C30.3063 43.8687 31.1288 43.6748 31.8015 43.3517C33.1265 42.7193 34.2316 41.7043 34.974 40.4377C35.35 39.7914 35.6114 38.9895 35.82 37.7234C36.0286 36.4368 36.1666 34.7947 36.3605 32.4947L36.3634 32.4917Z" fill="#204E51"/>
</g>
<defs>
<clipPath id="clip0_129_13">
<rect width="47" height="47" fill="white"/>
</clipPath>
</defs>
</svg>
