<svg width="26" height="26" viewBox="0 0 26 26" fill="none" xmlns="http://www.w3.org/2000/svg">
<g clip-path="url(#clip0_110_13)">
<path d="M25.48 8.84002C25.48 8.55402 25.246 8.32002 24.96 8.32002H18.2C17.914 8.32002 17.68 8.08602 17.68 7.80002V1.04002C17.68 0.75402 17.446 0.52002 17.16 0.52002H8.84002C8.55402 0.52002 8.32002 0.75402 8.32002 1.04002V7.80002C8.32002 8.08602 8.08602 8.32002 7.80002 8.32002H1.04002C0.75402 8.32002 0.52002 8.55402 0.52002 8.84002V17.16C0.52002 17.446 0.75402 17.68 1.04002 17.68H7.80002C8.08602 17.68 8.32002 17.914 8.32002 18.2V24.96C8.32002 25.246 8.55402 25.48 8.84002 25.48H17.16C17.446 25.48 17.68 25.246 17.68 24.96V18.2C17.68 17.914 17.914 17.68 18.2 17.68H24.96C25.246 17.68 25.48 17.446 25.48 17.16V8.84002Z" fill="white"/>
</g>
<defs>
<clipPath id="clip0_110_13">
<rect width="26" height="26" fill="white"/>
</clipPath>
</defs>
</svg>
