<svg width="26" height="26" viewBox="0 0 26 26" fill="none" xmlns="http://www.w3.org/2000/svg">
<path d="M14.625 5.95833C15.8059 5.95833 16.7917 4.96167 16.7917 3.79167C16.7917 3.21703 16.5634 2.66593 16.1571 2.2596C15.7508 1.85327 15.1997 1.625 14.625 1.625C13.4225 1.625 12.4584 2.57833 12.4584 3.79167C12.4584 4.96167 13.4225 5.95833 14.625 5.95833ZM10.7142 20.995L11.7975 16.25L14.0834 18.4167V24.9167H16.25V16.7917L13.9642 14.625L14.625 11.375C15.3673 12.2256 16.2831 12.9073 17.3109 13.3745C18.3386 13.8416 19.4544 14.0833 20.5834 14.0833V11.9167C18.5142 11.9167 16.7917 10.8333 15.9142 9.295L14.8309 7.58333C14.3975 6.91167 13.7475 6.5 13 6.5C12.6642 6.5 12.4584 6.58667 12.1225 6.58667L6.50003 8.97V14.0833H8.66669V10.3783L10.6059 9.62L8.87253 18.4167L3.56419 17.3333L3.13086 19.5L10.7142 20.995Z" fill="white"/>
</svg>
