<svg width="18" height="24" viewBox="0 0 18 24" fill="none" xmlns="http://www.w3.org/2000/svg">
<path d="M11.625 4.95833C12.8059 4.95833 13.7917 3.96167 13.7917 2.79167C13.7917 2.21703 13.5634 1.66593 13.1571 1.2596C12.7508 0.853273 12.1997 0.625 11.625 0.625C10.4225 0.625 9.45836 1.57833 9.45836 2.79167C9.45836 3.96167 10.4225 4.95833 11.625 4.95833ZM7.71419 19.995L8.79753 15.25L11.0834 17.4167V23.9167H13.25V15.7917L10.9642 13.625L11.625 10.375C12.3673 11.2256 13.2831 11.9073 14.3109 12.3745C15.3386 12.8416 16.4544 13.0833 17.5834 13.0833V10.9167C15.5142 10.9167 13.7917 9.83333 12.9142 8.295L11.8309 6.58333C11.3975 5.91167 10.7475 5.5 10 5.5C9.66419 5.5 9.45836 5.58667 9.12253 5.58667L3.50003 7.97V13.0833H5.66669V9.37833L7.60586 8.62L5.87253 17.4167L0.564193 16.3333L0.130859 18.5L7.71419 19.995Z" fill="white"/>
</svg>
