<svg width="52" height="52" viewBox="0 0 52 52" fill="none" xmlns="http://www.w3.org/2000/svg">
<path fill-rule="evenodd" clip-rule="evenodd" d="M48.685 8.125C48.7293 7.58447 48.7509 7.04234 48.75 6.5V3.25H43.0625C38.8427 3.2493 34.7366 4.61744 31.3606 7.14902C27.9845 9.68061 25.5208 13.239 24.3393 17.29C22.518 14.9408 20.1831 13.0398 17.5133 11.7328C14.8436 10.4258 11.91 9.74754 8.9375 9.75H3.25V13C3.25 18.1717 5.30446 23.1316 8.96142 26.7886C12.6184 30.4455 17.5783 32.5 22.75 32.5H23.5625V46.3125C23.5625 46.959 23.8193 47.579 24.2764 48.0361C24.7335 48.4932 25.3535 48.75 26 48.75C26.6465 48.75 27.2665 48.4932 27.7236 48.0361C28.1807 47.579 28.4375 46.959 28.4375 46.3125V26H29.25C34.1409 26.0007 38.8535 24.1635 42.4534 20.8526C46.0532 17.5417 48.2774 12.9989 48.685 8.125ZM28.5253 21.125C28.925 17.5494 30.6288 14.2466 33.3107 11.8482C35.9927 9.44989 39.4646 8.12431 43.0625 8.125H43.7873C43.3875 11.7006 41.6837 15.0034 39.0018 17.4018C36.3198 19.8001 32.8479 21.1257 29.25 21.125H28.5253ZM8.9375 14.625C12.5354 14.6243 16.0073 15.9499 18.6893 18.3482C21.3712 20.7466 23.075 24.0494 23.4748 27.625H22.75C19.1521 27.6257 15.6802 26.3001 12.9982 23.9018C10.3163 21.5034 8.61252 18.2006 8.21275 14.625H8.9375Z" fill="white"/>
</svg>
