<svg width="34" height="34" viewBox="0 0 34 34" fill="none" xmlns="http://www.w3.org/2000/svg">
<path fill-rule="evenodd" clip-rule="evenodd" d="M15.1458 6.89581C14.8781 6.89568 14.6162 6.97368 14.3922 7.12022C14.1683 7.26677 13.9919 7.4755 13.8849 7.72081C13.7765 7.96909 13.6204 8.1936 13.4252 8.38153C13.2301 8.56945 12.9999 8.7171 12.7478 8.81605C12.4956 8.915 12.2264 8.96332 11.9556 8.95824C11.6847 8.95316 11.4175 8.89478 11.1693 8.78644C10.921 8.6781 10.6965 8.52192 10.5085 8.32681C10.3206 8.1317 10.173 7.90149 10.074 7.64933C9.97506 7.39716 9.92675 7.12797 9.93183 6.85712C9.93691 6.58628 9.99529 6.3191 10.1036 6.07081C10.5002 5.16205 11.1352 4.37741 11.9412 3.79992C12.7472 3.22243 13.6943 2.87357 14.6823 2.79026C15.6704 2.70695 16.6626 2.89229 17.5539 3.32666C18.4452 3.76103 19.2025 4.42828 19.7457 5.2578C20.2889 6.08732 20.5978 7.04825 20.6396 8.03891C20.6814 9.02957 20.4546 10.0131 19.9832 10.8854C19.5119 11.7578 18.8135 12.4865 17.9619 12.9944C17.1103 13.5023 16.1373 13.7706 15.1458 13.7708H7.58325C7.03624 13.7708 6.51164 13.5535 6.12484 13.1667C5.73805 12.7799 5.52075 12.2553 5.52075 11.7083C5.52075 11.1613 5.73805 10.6367 6.12484 10.2499C6.51164 9.86311 7.03624 9.64581 7.58325 9.64581H15.1458C15.5104 9.64581 15.8602 9.50095 16.118 9.24309C16.3759 8.98522 16.5208 8.63549 16.5208 8.27081C16.5208 7.90614 16.3759 7.55641 16.118 7.29854C15.8602 7.04068 15.5104 6.89581 15.1458 6.89581ZM26.1458 12.3958C25.8781 12.3957 25.6162 12.4737 25.3922 12.6202C25.1683 12.7668 24.9919 12.9755 24.8849 13.2208C24.6661 13.7222 24.257 14.1162 23.7478 14.3161C23.2385 14.5159 22.6707 14.5052 22.1693 14.2864C21.6678 14.0676 21.2739 13.6586 21.074 13.1493C20.8742 12.64 20.8848 12.0722 21.1036 11.5708C21.5002 10.6621 22.1351 9.87741 22.9412 9.29992C23.7472 8.72243 24.6943 8.37357 25.6823 8.29026C26.6704 8.20695 27.6626 8.39229 28.5539 8.82666C29.4452 9.26103 30.2025 9.92828 30.7457 10.7578C31.2889 11.5873 31.5978 12.5482 31.6396 13.5389C31.6814 14.5296 31.4546 15.5131 30.9832 16.3854C30.5119 17.2578 29.8135 17.9865 28.9619 18.4944C28.1103 19.0023 27.1373 19.2706 26.1458 19.2708H4.83325C4.28624 19.2708 3.76164 19.0535 3.37484 18.6667C2.98805 18.2799 2.77075 17.7553 2.77075 17.2083C2.77075 16.6613 2.98805 16.1367 3.37484 15.7499C3.76164 15.3631 4.28624 15.1458 4.83325 15.1458H26.1458C26.5104 15.1458 26.8602 15.0009 27.118 14.7431C27.3759 14.4852 27.5208 14.1355 27.5208 13.7708C27.5208 13.4061 27.3759 13.0564 27.118 12.7985C26.8602 12.5407 26.5104 12.3958 26.1458 12.3958ZM19.3849 26.6958C19.484 26.923 19.6427 27.1191 19.8442 27.2635C20.0457 27.4079 20.2825 27.4951 20.5295 27.5159C20.7765 27.5368 21.0245 27.4905 21.2473 27.3819C21.4702 27.2733 21.6595 27.1066 21.7953 26.8992C21.9311 26.6919 22.0084 26.4517 22.0189 26.204C22.0293 25.9564 21.9727 25.7105 21.8549 25.4924C21.7371 25.2743 21.5626 25.0921 21.3497 24.9651C21.1368 24.8381 20.8936 24.7709 20.6458 24.7708H11.7083C11.1612 24.7708 10.6366 24.5535 10.2498 24.1667C9.86305 23.7799 9.64575 23.2553 9.64575 22.7083C9.64575 22.1613 9.86305 21.6367 10.2498 21.2499C10.6366 20.8631 11.1612 20.6458 11.7083 20.6458H20.6458C21.6373 20.6458 22.6105 20.9139 23.4622 21.4216C24.314 21.9294 25.0126 22.658 25.4841 23.5303C25.9557 24.4026 26.1826 25.3861 26.141 26.3769C26.0993 27.3676 25.7906 28.3286 25.2475 29.1583C24.7044 29.9879 23.9471 30.6553 23.0557 31.0897C22.1644 31.5242 21.1722 31.7096 20.1841 31.6264C19.196 31.5431 18.2488 31.1943 17.4427 30.6168C16.6366 30.0393 16.0016 29.2546 15.605 28.3458C15.4908 28.0967 15.4274 27.8274 15.4185 27.5535C15.4095 27.2796 15.4553 27.0067 15.553 26.7507C15.6507 26.4947 15.7985 26.2608 15.9877 26.0625C16.1768 25.8643 16.4036 25.7057 16.6547 25.5961C16.9059 25.4864 17.1763 25.4279 17.4503 25.424C17.7243 25.4201 17.9963 25.4708 18.2505 25.5732C18.5047 25.6756 18.7359 25.8276 18.9307 26.0203C19.1254 26.2131 19.2799 26.4427 19.3849 26.6958Z" fill="white"/>
</svg>
