<svg width="28" height="28" viewBox="0 0 28 28" fill="none" xmlns="http://www.w3.org/2000/svg">
<path d="M12.8334 23.3333V18.6666H10.5001C8.88619 18.6666 7.51069 18.0977 6.37358 16.9598C5.23647 15.8219 4.66753 14.4464 4.66675 12.8333C4.66675 11.6666 4.98758 10.5925 5.62925 9.61098C6.27091 8.62943 7.13619 7.91465 8.22508 7.46665C8.40008 6.00831 9.03708 4.78837 10.1361 3.80681C11.2351 2.82526 12.5231 2.33409 14.0001 2.33331C15.4771 2.33254 16.7655 2.8237 17.8652 3.80681C18.965 4.78993 19.6016 6.00987 19.7751 7.46665C20.864 7.91387 21.7292 8.62865 22.3709 9.61098C23.0126 10.5933 23.3334 11.6674 23.3334 12.8333C23.3334 14.4472 22.7645 15.8231 21.6266 16.961C20.4887 18.0989 19.1132 18.6674 17.5001 18.6666H15.1667V23.3333H21.0001C21.3306 23.3333 21.6079 23.4453 21.8319 23.6693C22.0559 23.8933 22.1675 24.1702 22.1667 24.5C22.166 24.8298 22.054 25.107 21.8307 25.3318C21.6075 25.5566 21.3306 25.6682 21.0001 25.6666H7.00008C6.66953 25.6666 6.39264 25.5546 6.16941 25.3306C5.94619 25.1066 5.83419 24.8298 5.83341 24.5C5.83264 24.1702 5.94464 23.8933 6.16941 23.6693C6.39419 23.4453 6.67108 23.3333 7.00008 23.3333H12.8334Z" fill="white"/>
</svg>
